# xmcd CD database file
#
# Track frame offsets:
#	150
#	16362
#	33853
#	53271
#	70771
#	89220
#	107607
#	128396
#	150247
#	164334
#	183647
#
# Disc length: 2613 seconds
#
# Revision: 2
# Processed by: cddbd v1.5.1PL2 Copyright (c) Steve Scherf et al.
# Submitted via: CDex 1.51
#
DISCID=7c0a330b
DTITLE=Beth Nielsen Chapman - Look
DYEAR=2004
DGENRE=
TTITLE0=Trying To Love You
TTITLE1=Right Back Into The Feeling
TTITLE2=Look
TTITLE3=Free
TTITLE4=Touch My Heart
TTITLE5=Time Won't Tell
TTITLE6=Will and Liz
TTITLE7=Who We Are
TTITLE8=Your Love Stays
TTITLE9=The Reason
TTITLE10=I Find Your Love
EXTD=YEAR: 2004
EXTT0=
EXTT1=
EXTT2=
EXTT3=
EXTT4=
EXTT5=
EXTT6=
EXTT7=
EXTT8=
EXTT9=
EXTT10=
PLAYORDER=
